<svg xmlns="http://www.w3.org/2000/svg" class="svg-sprite"><defs /><symbol id="icon-arrow-down" viewBox="0 0 52.2 28.1"><path d="M 26.6 28.138 c 1 -0.1 2 -0.5 2.8 -1.2 l 21 -18 c 2.2 -1.7 2.5 -4.9 0.8 -7 c -1.7 -2.2 -4.9 -2.5 -7 -0.8 c -0.1 0.1 -0.2 0.1 -0.2 0.2 l -17.8 15.2 l -17.8 -15.2 c -2 -1.9 -5.2 -1.7 -7.1 0.3 s -1.7 5.2 0.3 7.1 c 0.1 0.1 0.2 0.1 0.2 0.2 l 21 18 c 1.1 0.8 2.4 1.3 3.8 1.2 Z" /></symbol><symbol id="icon-arrow-left" viewBox="0 0 28.1 52.2"><path d="M 0 26.638 c 0.1 1 0.5 2 1.2 2.8 l 18 21 c 1.7 2.2 4.9 2.5 7 0.8 c 2.2 -1.7 2.5 -4.9 0.8 -7 c -0.1 -0.1 -0.1 -0.2 -0.2 -0.2 l -15.2 -17.8 l 15.2 -17.8 c 1.9 -2 1.7 -5.2 -0.3 -7.1 c -2 -1.9 -5.2 -1.7 -7.1 0.3 c -0.1 0.1 -0.1 0.2 -0.2 0.2 l -18 21 c -0.9 1.1 -1.3 2.4 -1.2 3.8 Z" /></symbol><symbol id="icon-arrow-right" viewBox="0 0 28.1 52.2"><path d="M 28.1 25.638 c -0.1 -1 -0.5 -2 -1.2 -2.8 l -18 -21 c -1.7 -2.2 -4.9 -2.5 -7 -0.8 c -2.2 1.7 -2.5 4.9 -0.8 7 c 0.1 0.1 0.1 0.2 0.2 0.2 l 15.2 17.8 l -15.2 17.8 c -1.9 2 -1.7 5.2 0.3 7.1 c 2 1.9 5.2 1.7 7.1 -0.3 c 0.1 -0.1 0.1 -0.2 0.2 -0.2 l 18 -21 c 0.9 -1.1 1.3 -2.4 1.2 -3.8 Z" /></symbol><symbol id="icon-close-circle" viewBox="0 0 7 7"><path d="M 3.5 7 C 1.6 7 0 5.4 0 3.5 S 1.6 0 3.5 0 S 7 1.6 7 3.5 S 5.4 7 3.5 7 Z m 1.6 -4.4 c 0.2 -0.2 0.2 -0.5 0 -0.7 c -0.2 -0.2 -0.5 -0.2 -0.7 0 l -0.9 0.9 l -0.9 -0.9 c -0.2 -0.2 -0.5 -0.2 -0.7 0 c -0.2 0.2 -0.2 0.5 0 0.7 l 0.9 0.9 l -0.9 0.9 c -0.2 0.2 -0.2 0.5 0 0.7 c 0.2 0.2 0.5 0.2 0.7 0 l 0.9 -0.9 l 0.9 0.9 c 0.2 0.2 0.5 0.2 0.7 0 c 0.2 -0.2 0.2 -0.5 0 -0.7 l -0.9 -0.9 l 0.9 -0.9 Z" /></symbol><symbol id="icon-close" viewBox="0 0 51.6 51.8"><path d="M 42.9 0.138 l -17 17 L 8.7 0.038 L 0 8.638 l 17.2 17.2 L 0 43.038 l 8.7 8.7 l 17.2 -17.2 l 17 17 l 8.7 -8.7 l -17 -17 l 17 -17 l -8.7 -8.7 Z" /></symbol><symbol id="icon-facebook-color" viewBox="0 0 600 600"><path fill="#fff" d="M 148 108.2 h 355 V 600 H 148 Z" /><path fill="#3d5a9a" d="M 600.5 71.8 v 456.4 c 0 39.6 -32.2 71.8 -72 71.8 H 402.9 c 0.1 -0.6 0.2 -1.1 0.2 -1.7 V 387 h 59.3 c 3.9 0 7.1 -2.9 7.5 -6.7 l 9 -78.1 c 0.2 -2.2 -0.4 -4.3 -1.9 -5.9 c -1.4 -1.6 -3.5 -2.5 -5.7 -2.5 H 403 v -49 c 0 -14.8 8 -22.3 23.6 -22.3 h 44.6 c 4.2 0 7.6 -3.4 7.6 -7.6 v -71.7 c 0 -4.2 -3.4 -7.6 -7.6 -7.6 h -61.5 c -0.4 0 -1.4 -0.1 -2.8 -0.1 c -7.5 0 -27.9 1 -49.5 10.9 c -9.3 4.2 -18.8 10.1 -27.6 18.2 c -32.5 29.9 -26.4 65.8 -26.9 71.9 v 57.3 H 249 c -1.8 0 -3.5 0.7 -4.9 1.8 c -1.7 1.4 -2.7 3.5 -2.7 5.8 v 77.2 c 0 4.2 3.4 7.6 7.6 7.6 h 51.5 v 212.3 c 0 0.6 0.1 1.1 0.2 1.7 H 72 c -39.8 0 -72 -32.1 -72 -71.8 V 71.8 C 0 32.1 32.2 0 72 0 h 456.5 c 39.8 0 72 32.1 72 71.8 Z" /></symbol><symbol id="icon-facebook" viewBox="0 0 14.002 30"><path d="M 7.986 30 V 14.98 h 4.956 l 0.783 -4.977 H 7.986 V 7.507 c 0 -1.299 0.426 -2.539 2.29 -2.539 h 3.726 V 0 H 8.713 C 4.266 0 3.052 2.929 3.052 6.988 V 10 H 0 v 4.98 h 3.052 V 30 h 4.934 Z" /></symbol><symbol id="icon-google-plus-color" viewBox="0 0 600 600"><path fill="#ca4738" d="M 528.5 0 H 72 C 32.2 0 0 32.1 0 71.8 v 456.6 c 0 39.7 32.2 71.8 72 71.8 l 456.5 -0.2 c 39.8 0 72 -32.2 72 -71.8 V 71.8 c 0 -39.7 -32.2 -71.8 -72 -71.8 Z" /><path fill="#fff" d="M 201.1 280.2 v 47.4 h 78.5 c -3.2 20.3 -23.7 59.7 -78.5 59.7 c -47.3 0 -85.8 -39.1 -85.8 -87.4 c 0 -48.2 38.6 -87.4 85.8 -87.4 c 26.9 0 44.9 11.5 55.2 21.4 l 37.6 -36.2 c -24.1 -22.5 -55.4 -36.2 -92.7 -36.2 c -76.5 0 -138.4 61.9 -138.4 138.4 s 61.9 138.4 138.4 138.4 c 79.9 0 132.9 -56.1 132.9 -135.2 c 0 -9.1 -1 -16 -2.2 -22.9 H 201.1 Z m 276.8 0 v -59.3 h -39.5 v 59.3 h -59.3 v 39.6 h 59.3 v 59.3 h 39.5 v -59.3 h 59.3 v -39.6 Z" /></symbol><symbol id="icon-google" viewBox="0 0 32 32"><path d="M 16.319 13.713 V 19.2 h 9.075 c -0.369 2.356 -2.744 6.9 -9.075 6.9 C 10.856 26.1 6.4 21.575 6.4 16 s 4.456 -10.1 9.919 -10.1 c 3.106 0 5.188 1.325 6.375 2.469 l 4.344 -4.181 C 24.25 1.576 20.638 0 16.319 0 c -8.844 0 -16 7.156 -16 16 s 7.156 16 16 16 c 9.231 0 15.363 -6.494 15.363 -15.631 c 0 -1.05 -0.113 -1.85 -0.25 -2.65 l -15.113 -0.006 Z" /></symbol><symbol id="icon-instagram-color" viewBox="0 0 600 600"><path fill="#fff" stroke="#000" stroke-miterlimit="10" d="M 61 79.2 h 484 v 449 H 61 Z" /><linearGradient id="a" gradientUnits="userSpaceOnUse" gradientTransform="matrix(1, 0, 0, -1, 0, 599.2)" x1="39.21" y1="45.696" x2="475.211" y2="469.029"><stop stop-color="rgb(252, 192, 16)" offset="0" /><stop stop-color="rgb(233, 71, 58)" offset="0.507" /><stop stop-color="rgb(131, 62, 144)" offset="0.99" /></linearGradient><path fill="url(#a)" d="M 373.1 142.1 H 227.4 c -46.9 0 -85 38.1 -85 85 v 145.8 c 0 46.9 38.1 85 85 85 h 145.8 c 46.9 0 85 -38.1 85 -85 V 227.1 c -0.1 -46.9 -38.2 -85 -85.1 -85 Z m -72.9 255 c -53.7 0 -97.2 -43.5 -97.2 -97.2 s 43.5 -97.2 97.2 -97.2 s 97.2 43.5 97.2 97.2 s -43.5 97.2 -97.2 97.2 Z m 104.5 -188.6 c -7.2 0 -12.9 -5.8 -12.9 -12.9 c 0 -7.2 5.8 -12.9 12.9 -12.9 c 7.2 0 12.9 5.8 12.9 12.9 s -5.7 12.9 -12.9 12.9 Z" /><linearGradient id="b" gradientUnits="userSpaceOnUse" gradientTransform="matrix(1, 0, 0, -1, 0, 599.2)" x1="39.103" y1="45.806" x2="475.103" y2="469.14"><stop stop-color="rgb(252, 192, 16)" offset="0" /><stop stop-color="rgb(233, 71, 58)" offset="0.507" /><stop stop-color="rgb(131, 62, 144)" offset="0.99" /></linearGradient><path fill="url(#b)" d="M 300.2 239.2 c -33.5 0 -60.7 27.2 -60.7 60.7 s 27.3 60.7 60.7 60.7 c 33.5 0 60.7 -27.3 60.7 -60.7 c 0.1 -33.4 -27.2 -60.7 -60.7 -60.7 Z" /><linearGradient id="c" gradientUnits="userSpaceOnUse" gradientTransform="matrix(1, 0, 0, -1, 0, 599.2)" x1="39.186" y1="45.721" x2="475.186" y2="469.054"><stop stop-color="rgb(252, 192, 16)" offset="0" /><stop stop-color="rgb(233, 71, 58)" offset="0.507" /><stop stop-color="rgb(131, 62, 144)" offset="0.99" /></linearGradient><path fill="url(#c)" d="M 528.5 0 H 72 C 32.2 0 0 32.1 0 71.8 v 456.4 C 0 567.8 32.2 600 72 600 h 456.5 c 39.8 0 72 -32.1 72 -71.8 V 71.8 c 0 -39.7 -32.2 -71.8 -72 -71.8 Z m -33.9 372.8 c 0 67.1 -54.4 121.5 -121.5 121.5 H 227.4 c -67.1 0 -121.5 -54.4 -121.5 -121.5 V 227.1 c 0 -67.1 54.4 -121.5 121.5 -121.5 h 145.8 c 67.1 0 121.5 54.4 121.5 121.5 v 145.7 h -0.1 Z" /></symbol><symbol id="icon-instagram" viewBox="0 0 32 32"><path d="M 16 2.881 c 4.275 0 4.781 0.019 6.462 0.094 c 1.563 0.069 2.406 0.331 2.969 0.55 a 4.952 4.952 0 0 1 1.837 1.194 a 5.015 5.015 0 0 1 1.2 1.838 c 0.219 0.563 0.481 1.412 0.55 2.969 c 0.075 1.688 0.094 2.194 0.094 6.463 s -0.019 4.781 -0.094 6.463 c -0.069 1.563 -0.331 2.406 -0.55 2.969 a 4.94 4.94 0 0 1 -1.194 1.837 a 5.02 5.02 0 0 1 -1.837 1.2 c -0.563 0.219 -1.413 0.481 -2.969 0.55 c -1.688 0.075 -2.194 0.094 -6.463 0.094 s -4.781 -0.019 -6.463 -0.094 c -1.563 -0.069 -2.406 -0.331 -2.969 -0.55 a 4.952 4.952 0 0 1 -1.838 -1.194 a 5.02 5.02 0 0 1 -1.2 -1.837 c -0.219 -0.563 -0.481 -1.413 -0.55 -2.969 c -0.075 -1.688 -0.094 -2.194 -0.094 -6.463 s 0.019 -4.781 0.094 -6.463 c 0.069 -1.563 0.331 -2.406 0.55 -2.969 a 4.964 4.964 0 0 1 1.194 -1.838 a 5.015 5.015 0 0 1 1.838 -1.2 c 0.563 -0.219 1.412 -0.481 2.969 -0.55 c 1.681 -0.075 2.188 -0.094 6.463 -0.094 Z M 16 0 c -4.344 0 -4.887 0.019 -6.594 0.094 c -1.7 0.075 -2.869 0.35 -3.881 0.744 c -1.056 0.412 -1.95 0.956 -2.837 1.85 a 7.833 7.833 0 0 0 -1.85 2.831 C 0.444 6.538 0.169 7.7 0.094 9.4 C 0.019 11.113 0 11.656 0 16 s 0.019 4.887 0.094 6.594 c 0.075 1.7 0.35 2.869 0.744 3.881 c 0.413 1.056 0.956 1.95 1.85 2.837 a 7.82 7.82 0 0 0 2.831 1.844 c 1.019 0.394 2.181 0.669 3.881 0.744 c 1.706 0.075 2.25 0.094 6.594 0.094 s 4.888 -0.019 6.594 -0.094 c 1.7 -0.075 2.869 -0.35 3.881 -0.744 c 1.05 -0.406 1.944 -0.956 2.831 -1.844 s 1.438 -1.781 1.844 -2.831 c 0.394 -1.019 0.669 -2.181 0.744 -3.881 c 0.075 -1.706 0.094 -2.25 0.094 -6.594 s -0.019 -4.887 -0.094 -6.594 c -0.075 -1.7 -0.35 -2.869 -0.744 -3.881 a 7.506 7.506 0 0 0 -1.831 -2.844 A 7.82 7.82 0 0 0 26.482 0.843 C 25.463 0.449 24.301 0.174 22.601 0.099 c -1.712 -0.081 -2.256 -0.1 -6.6 -0.1 Z" /><path d="M 16 7.781 c -4.537 0 -8.219 3.681 -8.219 8.219 s 3.681 8.219 8.219 8.219 s 8.219 -3.681 8.219 -8.219 A 8.221 8.221 0 0 0 16 7.781 Z m 0 13.55 a 5.331 5.331 0 1 1 0 -10.663 a 5.331 5.331 0 0 1 0 10.663 Z M 26.462 7.456 a 1.919 1.919 0 1 1 -3.838 0 a 1.919 1.919 0 0 1 3.838 0 Z" /></symbol><symbol id="icon-linkedin" viewBox="0 0 32 32"><path d="M 12 12 h 5.535 v 2.837 h 0.079 c 0.77 -1.381 2.655 -2.837 5.464 -2.837 C 28.92 12 30 15.637 30 20.367 V 30 h -5.769 v -8.54 c 0 -2.037 -0.042 -4.657 -3.001 -4.657 c -3.005 0 -3.463 2.218 -3.463 4.509 V 30 H 12 V 12 Z M 2 12 h 6 v 18 H 2 V 12 Z m 6 -5 a 3 3 0 1 1 -6 0 a 3 3 0 0 1 6 0 Z" /></symbol><symbol id="icon-menu" viewBox="153.6 192.1 76.8 64"><path d="M 230.4 246.4 v 6.4 c 0 0.9 -0.3 1.6 -1 2.3 c -0.6 0.6 -1.4 1 -2.3 1 h -70.4 c -0.9 0 -1.6 -0.3 -2.3 -1 c -0.6 -0.6 -0.9 -1.4 -0.9 -2.3 v -6.4 c 0 -0.9 0.3 -1.6 1 -2.3 s 1.4 -1 2.3 -1 h 70.4 c 0.9 0 1.6 0.3 2.3 1 c 0.6 0.7 0.9 1.5 0.9 2.3 Z m 0 -25.6 v 6.4 c 0 0.9 -0.3 1.6 -1 2.3 s -1.4 0.9 -2.3 0.9 h -70.4 c -0.9 0 -1.6 -0.3 -2.3 -0.9 c -0.6 -0.6 -0.9 -1.4 -0.9 -2.3 v -6.4 c 0 -0.9 0.3 -1.6 1 -2.3 s 1.4 -0.9 2.2 -0.9 h 70.4 c 0.9 0 1.6 0.3 2.3 1 c 0.7 0.6 1 1.4 1 2.2 Z m 0 -25.6 v 6.4 c 0 0.9 -0.3 1.6 -1 2.3 s -1.4 1 -2.3 1 h -70.4 c -0.9 0 -1.6 -0.3 -2.3 -1 s -0.9 -1.4 -0.9 -2.3 v -6.4 c 0 -0.9 0.3 -1.6 1 -2.3 s 1.4 -0.9 2.2 -0.9 h 70.4 c 0.9 0 1.6 0.3 2.3 1 s 1 1.4 1 2.2 Z" /></symbol><symbol id="icon-newsletter-color" viewBox="0 0 600 600"><style /><path fill="#fff" stroke="#000" stroke-miterlimit="10" d="M 80 113.2 h 463 v 367 H 80 Z" /><path fill="currentColor" d="M 148.6 218.7 v 171.1 c 0 7.7 6.3 14 14 14 h 275.3 c 7.7 0 14 -6.3 14 -14 V 218.7 L 300.3 331.5 L 148.6 218.7 Z" /><path fill="currentColor" d="M 435.4 196.1 H 165.2 l 135.1 100.4 Z" /><path fill="currentColor" d="M 528.6 0 H 72.1 C 32.3 0 0.1 32.1 0.1 71.8 v 456.4 c 0 39.6 32.2 71.8 72 71.8 h 456.5 c 39.8 0 72 -32.1 72 -71.8 V 71.8 c 0 -39.7 -32.3 -71.8 -72 -71.8 Z m -48.5 389.9 c 0 23.2 -18.9 42.1 -42.1 42.1 H 162.7 c -23.2 0 -42.1 -18.9 -42.1 -42.1 V 210.1 c 0 -23.2 18.9 -42.1 42.1 -42.1 H 438 c 23.2 0 42.1 18.9 42.1 42.1 v 179.8 Z" /></symbol><symbol id="icon-print-color" viewBox="0 0 600 600"><style>.st2{fill:#fff}</style><path fill="#fff" stroke="#000" stroke-miterlimit="10" d="M 80 160.2 h 463 v 367 H 80 v -367 Z" /><path fill="currentColor" d="M 528.6 0 H 72.1 C 32.3 0 0.1 32.1 0.1 71.8 v 456.4 c 0 39.6 32.2 71.8 72 71.8 h 456.5 c 39.8 0 72 -32.1 72 -71.8 V 71.8 c 0 -39.7 -32.3 -71.8 -72 -71.8 Z" /><path class="st2" d="M 150 226.6 h 55.2 v -95.7 c 0 -10 7.9 -17.9 17.4 -17.9 h 155.1 c 10 0 17.9 7.9 17.9 17.9 v 95.7 h 54.7 c 18.9 0 34.7 15.2 34.7 34.2 v 110.4 c 0 18.4 -15.8 34.2 -34.7 34.2 h -54.7 v 64.2 c 0 9.5 -7.9 17.4 -17.9 17.4 H 222.5 c -9.5 0 -17.4 -7.9 -17.4 -17.4 v -64.2 H 150 c -18.9 0 -34.2 -15.8 -34.2 -34.2 V 260.8 c 0 -18.9 15.2 -34.2 34.2 -34.2 Z M 378.7 366 c 0 -4.2 -3.7 -7.9 -7.9 -7.9 H 229.9 c -4.2 0 -7.9 3.7 -7.9 7.9 v 97.3 c 0 4.2 3.7 7.9 7.9 7.9 h 140.9 c 4.2 0 7.9 -3.7 7.9 -7.9 V 366 Z m -156.2 -24.2 h 155.1 c 10 0 17.9 7.9 17.9 17.9 V 387 h 53.1 c 9.5 0 17.4 -7.9 17.4 -17.4 V 261.9 c 0 -8.9 -7.9 -16.8 -17.4 -16.8 H 152 c -9.5 0 -17.4 7.9 -17.4 16.8 v 107.8 c 0 9.5 7.9 17.4 17.4 17.4 h 53.1 v -27.3 c 0.1 -10.1 8 -18 17.4 -18 Z m -0.5 -115.2 h 156.7 v -89.9 c 0 -4.2 -3.7 -7.4 -7.9 -7.4 H 229.9 c -4.2 0 -7.9 3.2 -7.9 7.4 v 89.9 Z" /><path class="st2" d="M 423.9 257.1 h 30 v 43.1 h -30 v -43.1 Z m 4.8 4.8 h 20 V 295 h -20 v -33.1 Z" /></symbol><symbol id="icon-rss-color" viewBox="0 0 600 600"><path fill="#fff" stroke="#000" stroke-miterlimit="10" d="M 60 89.2 h 482 v 423 H 60 Z" /><path fill="#f18326" d="M 528 0.2 H 71.5 C 31.7 0.2 -0.5 32.3 -0.5 72 v 456.4 c 0 39.6 32.2 71.8 72 71.8 H 528 c 39.8 0 72 -32.1 72 -71.8 V 72 C 600 32.4 567.8 0.2 528 0.2 Z M 184.2 371 c 24.9 0 45.1 20.2 45.1 45.1 s -20.2 45.1 -45.1 45.1 s -45.1 -20.2 -45.1 -45.1 s 20.2 -45.1 45.1 -45.1 Z m -44.7 -62.2 v -63 c 117.8 0 213.7 95.8 213.7 213.7 h -63 c 0 -83.1 -67.6 -150.7 -150.7 -150.7 Z m 257.9 150.7 c 0 -68.8 -26.7 -133.4 -75.3 -182 s -113.2 -75.3 -182 -75.3 v -63 c 85.6 0 166 33.3 226.5 93.7 c 60.5 60.5 93.8 140.9 93.8 226.5 h -63 v 0.1 Z" /></symbol><symbol id="icon-search" viewBox="0 0 685.5 685.5"><path d="M 429.7 493.7 C 385.2 525.4 330.8 544 272 544 C 121.8 544 0 422.2 0 272 S 121.8 0 272 0 s 272 121.8 272 272 c 0 58.8 -18.6 113.2 -50.3 157.7 l 178.7 178.7 c 17.6 17.6 17.5 45.8 0 63.2 l -0.8 0.8 c -17.4 17.4 -45.8 17.5 -63.2 0 L 429.7 493.7 Z M 272 480 c 114.9 0 208 -93.1 208 -208 S 386.9 64 272 64 S 64 157.1 64 272 s 93.1 208 208 208 Z" /></symbol><symbol id="icon-toms-guide-logo" viewBox="0 0 806.3 252.7"><style>.st0{fill:#fff}</style><g transform="matrix(0.6, 0, 0, 0.6, 21, 13.2)"><g id="_Group_"><path class="st0" id="_Group_2" d="M 458.5 130 h 22.1 v 17 c 0.3 5.2 -1.1 10.4 -3.9 14.8 c -3.5 4.3 -8.2 7.6 -13.4 9.6 l -4.8 -9.1 c 3 -1.2 5.8 -3 8.1 -5.3 c 1.5 -1.8 2.4 -4.1 2.5 -6.4 h -10.6 V 130 Z" /><path class="st0" id="_Compound_Path_" d="M 134.2 150.7 h 9.9 v -16.8 l 33.6 -10.6 v 27.6 H 195 v 23.7 h -17.3 v 37.8 c 0 2.2 0.3 4.4 1 6.5 c 0.7 1.9 2.3 2.8 5 2.8 c 1.8 -0.1 3.6 -0.4 5.3 -1 c 2.1 -0.6 4.1 -1.3 6.1 -2.1 V 242 c -1.7 0.7 -3.5 1.2 -5.3 1.5 c -2.1 0.4 -4.2 0.7 -6.4 1 l -6.1 0.6 c -1.9 0 -3.4 0.3 -4.5 0.3 c -5.4 0.2 -10.9 -0.7 -15.9 -2.8 c -3.6 -1.6 -6.5 -4.3 -8.5 -7.7 c -2 -3.7 -3.3 -7.8 -3.7 -12 c -0.5 -4.7 -0.8 -10 -0.9 -15.9 v -32.5 h -9.7 v -23.8 Z" /><path class="st0" id="_Compound_Path_2" d="M 249.6 244.5 c -6.5 0 -12.9 -1 -19.1 -3 c -6 -1.9 -11.6 -5 -16.4 -9.1 c -4.9 -4.1 -8.7 -9.3 -11.3 -15.2 c -2.9 -6.7 -4.3 -13.9 -4.2 -21.2 c -0.1 -7 1.5 -13.9 4.5 -20.2 c 2.7 -5.7 6.6 -10.8 11.3 -14.9 c 4.7 -4 10.1 -7.1 15.9 -9.1 c 5.9 -2.1 12.1 -3.1 18.3 -3.1 c 6.8 -0.1 13.6 1.1 20.1 3.4 c 5.9 2.2 11.3 5.5 15.9 9.7 c 4.6 4.3 8.2 9.5 10.6 15.4 c 2.6 6.5 3.9 13.5 3.8 20.6 c 0.1 6.9 -1.2 13.7 -3.9 20 c -2.5 5.6 -6.1 10.6 -10.6 14.7 c -4.6 4.1 -10 7.2 -15.9 9.1 c -6 1.8 -12.5 2.9 -19 2.9 Z m 0 -23.4 c 1.9 0 3.8 -0.6 5.3 -1.8 c 1.7 -1.5 3 -3.3 3.9 -5.3 c 1.2 -2.4 2.1 -4.9 2.6 -7.6 c 0.6 -3.2 0.8 -6.4 0.8 -9.6 c 0 -3.2 -0.3 -6.4 -0.9 -9.6 c -0.6 -2.7 -1.5 -5.4 -2.8 -7.9 c -1 -2.1 -2.4 -3.9 -4.1 -5.3 c -1.7 -1.3 -3.7 -2 -5.8 -1.9 c -1.8 0 -3.6 0.6 -5 1.8 c -1.7 1.5 -3 3.3 -3.9 5.3 c -1.2 2.4 -2.1 5 -2.7 7.7 c -0.7 3.1 -1 6.2 -1 9.3 c -0.3 6.3 1 12.5 3.9 18.1 c 1.7 3.9 5.5 6.6 9.7 6.8 Z" /><path class="st0" id="_Compound_Path_3" d="M 357.9 242.1 h -54 v -23.9 h 7.7 v -43.1 h -7.7 V 151 h 34.5 l 4 10.6 l 3.2 -3.6 c 1.5 -1.6 3.2 -3.1 5 -4.5 c 1.9 -1.4 4 -2.6 6.3 -3.6 c 2.5 -1 5.3 -1.6 8 -1.5 c 3.9 -0.1 7.8 0.4 11.6 1.4 c 2.7 0.8 5.3 2 7.7 3.4 c 1.9 1.2 3.5 2.6 4.9 4.3 c 1.2 1.5 2.2 2.8 2.9 3.9 c 3.2 -3.4 6.9 -6.3 10.9 -8.7 c 4.8 -2.9 10.3 -4.3 15.9 -4.2 c 6.2 -0.3 12.3 1 17.8 3.8 c 4.2 2.2 7.8 5.6 10.3 9.6 c 2.7 4.3 4.5 9 5.3 14 c 0.8 5.4 1.2 10.8 1.2 16.3 v 25.2 h 9 V 242 h -46.6 v -52.7 c 0 -1.8 -0.1 -3.5 -0.3 -5.3 c -0.1 -1.6 -0.5 -3.2 -1 -4.7 c -0.4 -1.2 -1.2 -2.4 -2.1 -3.3 c -1 -0.9 -2.4 -1.4 -3.8 -1.3 c -3.1 -0.4 -6.1 1.1 -7.7 3.8 c -1.3 3 -1.8 6.2 -1.6 9.5 v 29.6 h 10.6 v 24.5 h -47.1 v -46.6 c 0.1 -5.3 -0.2 -10.7 -1.1 -15.9 c -0.6 -3.1 -3.4 -5.2 -6.6 -4.8 c -2.4 -0.2 -4.8 0.8 -6.3 2.7 c -1.5 2.5 -2.1 5.4 -1.9 8.3 v 32.5 h 11 v 23.8 Z" /><path class="st0" id="_Compound_Path_4" d="M 481.4 242.1 v -32.9 h 24.5 c -0.1 2.2 0.7 4.4 2.3 6 c 1.5 1.6 3.3 2.9 5.3 3.8 c 2 0.9 4.2 1.5 6.4 1.9 c 1.8 0.3 3.5 0.5 5.3 0.5 c 1.8 0 3.6 -0.4 5.3 -1.2 c 1.9 -0.9 2.9 -3 2.7 -5 c 0 -1.7 -1.3 -3.1 -3.8 -4.1 c -3.1 -1.2 -6.3 -2.2 -9.5 -3 c -3.8 -1 -7.9 -2.1 -12.3 -3.4 c -4.3 -1.3 -8.5 -3.2 -12.4 -5.6 c -3.8 -2.3 -7 -5.5 -9.4 -9.2 c -2.7 -4.4 -4 -9.5 -3.8 -14.7 c -0.1 -4.2 1 -8.4 3.2 -12 c 2.1 -3.3 4.8 -6.1 8.1 -8.2 c 3.3 -2.1 6.8 -3.8 10.6 -4.8 c 3.4 -1 7 -1.5 10.6 -1.5 c 5.8 -0.1 11.5 1.3 16.5 4.1 c 4.5 2.2 8.2 5.7 10.6 10.1 l 1.5 -12 h 22.5 v 32.9 h -24 c 0 -1.9 -0.6 -3.7 -1.6 -5.3 c -1.2 -1.7 -2.6 -3.2 -4.3 -4.4 c -1.8 -1.3 -3.8 -2.3 -5.9 -3 c -2.2 -0.7 -4.5 -1.1 -6.8 -1.1 c -1.8 0 -3.6 0.5 -5 1.5 c -1.5 1.2 -2.3 3.1 -2.1 5 c 0.1 2.3 1.6 4.3 3.8 4.9 c 3.1 1.4 6.3 2.6 9.6 3.6 l 12.5 3.9 c 4.4 1.3 8.6 3 12.5 5.3 c 3.8 2.3 7 5.3 9.6 8.9 c 2.7 4.1 4 8.9 3.8 13.8 c 0.1 4 -0.9 8 -2.8 11.5 c -1.9 3.4 -4.4 6.3 -7.5 8.7 c -3.3 2.4 -6.9 4.2 -10.9 5.3 c -4.1 1.2 -8.5 1.8 -12.8 1.8 c -6 0.1 -12 -1.2 -17.3 -4 c -4.3 -2.1 -7.9 -5.4 -10.6 -9.3 l -1.6 11.1 l -22.8 0.1 Z" /><path class="st0" id="_Compound_Path_5" d="M 629.1 243.2 c 1.5 1.3 3.1 2.4 4.8 3.4 c 2.4 1.4 4.9 2.7 7.4 3.8 c 3 1.3 6.1 2.4 9.2 3.2 c 3.4 0.9 6.9 1.3 10.3 1.3 c 3.5 0.1 7 -0.4 10.2 -1.6 c 2.4 -0.9 4.6 -2.3 6.5 -4.1 c 1.5 -1.5 2.7 -3.3 3.4 -5.3 c 0.7 -1.9 1 -3.9 1 -5.9 v -6.3 c -0.8 1.1 -1.7 2.1 -2.8 3 c -1.3 1.2 -2.8 2.2 -4.3 3.1 c -2 1.1 -4 2 -6.2 2.7 c -2.6 0.8 -5.3 1.1 -8 1.1 c -6.9 0.3 -13.9 -1 -20.2 -3.8 c -5.2 -2.4 -9.7 -5.9 -13.3 -10.3 c -3.5 -4.3 -6.1 -9.3 -7.7 -14.6 c -1.8 -5.4 -2.8 -11.1 -2.9 -16.8 c -0.1 -6.5 0.9 -13 2.9 -19.2 c 1.8 -5.5 4.8 -10.6 8.7 -14.8 c 4 -4.2 8.9 -7.4 14.4 -9.5 c 6.4 -2.4 13.1 -3.5 19.9 -3.4 c 3.9 0 7.8 0.8 11.3 2.4 c 3 1.3 5.7 3.1 8.1 5.3 l 3.7 -5.9 H 729 v 23.9 h -11 v 54.6 c 0.1 7 -1.1 14 -3.4 20.6 c -2.2 6.1 -5.8 11.5 -10.6 15.9 c -5.2 4.6 -11.2 8.1 -17.8 10.2 c -8.1 2.6 -16.6 3.8 -25.1 3.7 c -4.7 0 -9.4 -0.5 -14 -1.6 c -4.1 -1 -8 -2.4 -11.9 -4.1 c -3.3 -1.5 -6.4 -3.3 -9.4 -5.3 c -2.3 -1.6 -4.5 -3.4 -6.6 -5.3 l 9.9 -20.4 Z m 26.5 -47.7 c 0 2.8 0.3 5.5 0.9 8.2 c 0.5 2.5 1.4 4.9 2.7 7.2 c 1 2 2.4 3.8 4.1 5.3 c 1.5 1.3 3.4 2 5.3 2 c 3.8 -0.2 7.2 -2.4 9.1 -5.7 c 2.9 -4.7 4.2 -10.1 3.9 -15.5 c 0 -3.2 -0.3 -6.4 -0.9 -9.5 c -0.5 -2.7 -1.4 -5.3 -2.7 -7.7 c -1 -2.1 -2.4 -3.9 -4.2 -5.3 c -1.5 -1.2 -3.4 -1.8 -5.3 -1.9 c -4.1 0.1 -7.7 2.5 -9.4 6.2 c -2.6 5.2 -3.7 10.9 -3.4 16.7 h -0.1 Z" /><path class="st0" id="_Compound_Path_6" d="M 736.5 150.7 H 781 v 44 c -0.3 5.9 0.4 11.8 2.1 17.4 c 1.1 3.3 4.3 5.5 7.7 5.3 c 3.1 0 6.1 -1.4 8.1 -3.8 c 2.3 -2.8 3.6 -6.4 3.4 -10 v -28.8 h -12 v -24.1 h 47.3 v 67.1 h 9 v 24.3 h -34.5 l -4.9 -11.5 l -3.6 4.1 c -3.4 3.8 -7.8 6.6 -12.7 8.2 c -3.2 1.1 -6.6 1.6 -10 1.5 c -5.9 0.2 -11.8 -0.8 -17.4 -2.8 c -4.5 -1.7 -8.4 -4.5 -11.3 -8.2 c -3.1 -4.1 -5.1 -8.9 -6.1 -13.9 c -1.3 -6.5 -1.9 -13.1 -1.8 -19.7 v -25 h -7.7 l -0.1 -24.1 Z" /><path class="st0" id="_Compound_Path_7" d="M 904.7 242.1 h -51.2 v -23.9 h 7.7 v -43.7 h -7.7 v -23.7 H 896 v 67.4 h 8.7 v 23.9 Z" /><path class="st0" id="_Compound_Path_8" d="M 973.7 128.9 h -8.4 v -23.7 h 45.5 v 113.1 h 8.7 v 23.9 h -42.7 l -3.1 -6.8 c -0.9 0.8 -1.8 1.6 -2.8 2.3 c -1.5 1.1 -3.1 2 -4.8 2.8 c -2.2 1 -4.5 1.8 -6.8 2.4 c -2.8 0.7 -5.7 1 -8.6 1 c -6.1 0.1 -12.1 -1.3 -17.5 -3.9 c -5.2 -2.5 -9.7 -6.2 -13.4 -10.6 c -3.7 -4.6 -6.6 -9.8 -8.5 -15.4 c -2 -5.9 -3 -12.1 -3 -18.3 c -0.1 -6.6 1.1 -13.1 3.5 -19.2 c 2.1 -5.5 5.3 -10.5 9.3 -14.7 c 3.9 -4 8.5 -7.1 13.6 -9.3 c 5 -2.2 10.4 -3.3 15.9 -3.3 c 5.2 -0.2 10.3 0.7 15.1 2.7 c 2.7 1.3 5.4 2.7 8 4.3 v -27.3 Z m -26.2 66.6 c 0 2.8 0.3 5.5 0.9 8.2 c 0.5 2.5 1.4 4.9 2.7 7.2 c 1 2 2.4 3.8 4.1 5.3 c 1.5 1.3 3.4 2 5.3 2 c 3.8 -0.2 7.2 -2.4 9.1 -5.7 c 2.9 -4.7 4.2 -10.1 3.9 -15.5 c 0 -3.2 -0.3 -6.4 -0.9 -9.5 c -0.5 -2.7 -1.4 -5.3 -2.7 -7.7 c -1 -2.1 -2.4 -3.9 -4.2 -5.3 c -1.5 -1.2 -3.4 -1.8 -5.3 -1.9 c -4.1 0.1 -7.7 2.5 -9.4 6.2 c -2.5 5.2 -3.8 11 -3.5 16.7 Z" /><path class="st0" id="_Compound_Path_9" d="M 1118.8 229.5 c -6.3 5.5 -13.6 9.7 -21.6 12.4 c -8.3 2.5 -16.9 3.7 -25.6 3.6 c -5.8 0 -11.6 -1 -17.2 -2.8 c -5.7 -1.9 -10.9 -4.8 -15.4 -8.7 c -4.8 -4.3 -8.6 -9.5 -11.2 -15.4 c -3.1 -7.1 -4.6 -14.8 -4.4 -22.5 c -0.1 -6.9 1.2 -13.7 3.8 -20 c 2.5 -5.7 6.1 -10.8 10.6 -15.1 c 4.5 -4.2 9.8 -7.4 15.5 -9.4 c 6.2 -2.2 12.8 -3.2 19.3 -3.2 c 6.8 -0.1 13.6 1 20 3.3 c 5.4 2 10.4 5.1 14.5 9.1 c 3.9 3.9 6.9 8.6 8.7 13.8 c 2 5.5 3 11.4 2.9 17.3 c 0 2.4 -0.2 4.8 -0.5 7.2 c -0.3 2.3 -0.9 4.5 -1.6 6.7 h -57.7 c 0.3 1.5 0.7 3 1.2 4.4 c 0.6 1.8 1.6 3.5 2.8 4.9 c 1.5 1.7 3.3 3.1 5.3 4 c 3 1.2 6.1 1.8 9.3 1.6 h 5.3 c 2.1 -0.2 4.1 -0.5 6.1 -1.1 c 2.4 -0.7 4.7 -1.6 6.9 -2.7 c 2.6 -1.3 5.1 -2.9 7.3 -4.8 l 15.7 17.4 Z m -45.1 -56.6 c -2.4 -0.1 -4.8 0.5 -6.8 1.6 c -1.7 1 -3.1 2.3 -4.2 3.9 c -1 1.5 -1.7 3.1 -2.2 4.8 c -0.4 1.4 -0.7 2.8 -0.8 4.2 h 27.6 c 0 -1.8 -0.2 -3.6 -0.5 -5.3 c -0.3 -1.7 -1 -3.3 -1.9 -4.8 c -1 -1.5 -2.4 -2.7 -4 -3.4 c -2.4 -0.8 -4.8 -1.1 -7.2 -1 Z" /></g></g></symbol><symbol id="icon-toms-hardware-logo" viewBox="0 0 806.3 252.7"><style>.st0{fill:#fff}</style><path class="st0" d="M 299.5 79.9 V 111 h -25.7 V 79.9 h -14.9 V 156 h 14.9 v -31.9 h 25.7 V 156 h 14.8 V 79.9 Z m 55.4 22.5 l 9.3 27.7 h -18.9 l 9.6 -27.7 Z m -6.2 -22.5 l -27.7 76 h 15.5 l 4.6 -13.5 h 27 l 4.5 13.5 h 15.5 l -27.8 -76 h -11.6 Z m 150.5 18 c -2.6 -3.1 -6 -4.7 -11.1 -4.7 h -11.2 v 49.5 h 11.2 c 5.1 0 8.5 -1.6 11.1 -4.7 c 2.8 -3.4 3.2 -8.9 3.2 -20.4 c 0 -11.5 -0.4 -16.3 -3.2 -19.7 m 10.3 50.8 c -5 5 -12.2 7.3 -20.1 7.3 H 462 V 80 h 27.4 c 7.9 0 15.1 2.2 20.1 7.3 c 8.5 8.5 7.7 19 7.7 30.4 c 0 11.4 0.9 22.5 -7.7 31 m 88.9 -68.8 l -11.9 48 l -13.9 -48 h -11.1 l -13.8 48 l -11.8 -48 h -15.5 l 20.3 76.1 h 12.4 l 14 -46.2 l 14 46.2 h 12.4 l 20.4 -76.1 Z m 46.1 22.5 l 9.3 27.7 h -18.9 l 9.6 -27.7 Z m -6.2 -22.5 l -27.7 76 h 15.5 l 4.6 -13.5 h 27 l 4.5 13.5 h 15.5 l -27.8 -76 h -11.6 Z m 75 13.3 h -14 v 20.1 h 14 c 6.5 0 10.8 -4.2 10.8 -10 c -0.1 -5.9 -4.3 -10.1 -10.8 -10.1 m 11.5 62.8 L 710 125.7 h -10.7 V 156 h -14.8 V 80 h 29.8 c 15.5 0 24.7 10.6 24.7 23.3 c 0 10.7 -6.5 17.3 -13.9 20 l 17 32.8 h -17.3 Z m 26.8 -76.1 V 156 h 50.1 v -13.3 h -35.3 v -18.4 h 30 V 111 h -30 V 93.2 h 35.3 V 79.9 Z m -316.2 43.3 c 7.4 -2.7 13.9 -9.3 13.9 -20 c 0 -10.5 -6.2 -19.4 -17.1 -22.3 v 15.9 c 1.4 1.7 2.2 3.9 2.2 6.4 c 0 5.9 -4.3 10 -10.8 10 h -10 v 12.4 h 6.7 l 14.8 30.3 h 17.2 l -16.9 -32.7 Z" /><path class="st0" d="M 426.9 82.6 l -0.1 8.6 c 0 1.7 -1.4 3.1 -3.2 3.1 l -2 -0.1 c -1.3 0.1 -2.8 -0.8 -3 -1.8 c 0.3 -1.2 -1.4 -2.4 -4 -2.4 c -3.9 -0.2 -6.5 2.2 -6.4 4.2 c -0.1 0.7 -0.1 3.3 -0.1 3.3 l -11.6 -0.1 v -1.9 s 0 -0.5 -0.1 -1.5 c 0.1 -3.6 -3.9 -3.9 -3.9 -3.9 c -10.2 -0.1 -17.5 7 -17.5 7 l -1.9 -1.8 c 11.1 -18 22.9 -16.9 26.8 -16.8 c 3.6 0.1 7.4 0.1 8.4 0.2 c 2.1 0.1 3.9 4 7 4.3 c 1.4 0 2.7 -0.6 3.4 -1.3 c 0.1 -1.5 1.6 -2.5 3 -2.4 l 1.8 0.1 c 2 0 3.3 1.4 3.4 3.2 m -30.3 19.8 l 11.5 0.4 l 1.7 51.2 c 0 2.3 -2 4.2 -4.4 4.2 l -6.2 -0.2 c -2.3 0 -4.2 -2 -4.2 -4.4 l 1.6 -51.2 Z M 27.7 158.2 c -11.3 0 -16.1 -8 -16.1 -15.9 v -27.6 H 5.7 v -10.6 h 5.9 V 87.7 h 13.9 v 16.5 h 9.8 v 10.6 h -9.8 v 26.7 c 0 3.2 1.5 5 4.8 5 h 5 v 11.8 h -7.6 Z m 44.9 -41.4 c -1.6 -1.6 -3.7 -2.4 -6.5 -2.4 s -4.8 0.9 -6.4 2.4 c -2.9 2.9 -3.2 7.7 -3.2 13.5 s 0.3 10.7 3.2 13.6 c 1.6 1.6 3.6 2.5 6.4 2.5 c 2.8 0 4.9 -0.9 6.5 -2.5 c 2.9 -2.9 3.2 -7.8 3.2 -13.6 s -0.3 -10.6 -3.2 -13.5 M 83.4 152 c -3.4 3.6 -9.1 6.8 -17.3 6.8 c -8.2 0 -13.8 -3.2 -17.2 -6.8 c -5 -5.2 -6.3 -11.5 -6.3 -21.7 c 0 -10.1 1.3 -16.4 6.3 -21.6 c 3.4 -3.6 9 -6.8 17.2 -6.8 s 13.9 3.2 17.3 6.8 c 5 5.2 6.3 11.5 6.3 21.6 c 0 10.2 -1.3 16.5 -6.3 21.7 m 79.4 6.2 v -33.7 c 0 -7.6 -4.8 -10.2 -9.2 -10.2 c -4.3 0 -9.3 2.6 -9.3 9.8 v 34 h -13.9 v -33.7 c 0 -7.6 -4.8 -10.2 -9.2 -10.2 c -4.4 0 -9.3 2.6 -9.3 10.2 v 33.7 H 98.1 v -55.7 h 13.6 v 5.1 c 3.6 -3.7 8.8 -5.8 13.9 -5.8 c 6.2 0 11.2 2.2 14.7 7.1 c 4.7 -4.9 9.7 -7.1 16.7 -7.1 c 5.6 0 10.6 1.8 13.7 4.9 c 4.5 4.5 6.1 9.7 6.1 15.8 V 158 h -14 Z m 21.4 -51.8 V 82.1 h 14.5 v 13.3 Z m 34 52.4 c -8.8 0 -16.7 -1 -23.7 -8 l 9.1 -9.1 c 4.6 4.6 10.6 5.2 14.9 5.2 c 4.8 0 9.8 -1.6 9.8 -5.8 c 0 -2.8 -1.5 -4.7 -5.9 -5.1 l -8.8 -0.9 c -10 -1 -16.2 -5.3 -16.2 -15.6 c 0 -11.5 10.1 -17.7 21.5 -17.7 c 8.7 0 15.9 1.5 21.3 6.5 l -8.5 8.7 c -3.2 -2.9 -8.1 -3.7 -12.9 -3.7 c -5.6 0 -7.9 2.6 -7.9 5.3 c 0 2 0.9 4.4 5.8 4.8 l 8.8 0.9 c 11 1.1 16.6 7 16.6 16.4 c -0.3 12.3 -10.8 18.1 -23.9 18.1" /></symbol><symbol id="icon-twitter-color" viewBox="0 0 600 600"><path fill="#fff" d="M 91 114.2 h 420 v 350.5 H 91 Z" /><path fill="#2baae1" d="M 528.5 0.1 H 72 C 32.2 0.1 0 32.2 0 71.8 v 456.4 C 0 567.9 32.2 600 72 600 h 456.5 c 39.8 0 72 -32.1 72 -71.8 V 71.8 c 0 -39.6 -32.2 -71.7 -72 -71.7 Z m -94.8 231.8 c 0.1 2.9 0.3 5.8 0.3 8.9 c 0 90.7 -69.3 195.3 -196.1 195.3 c -39 0 -75.2 -11.2 -105.7 -30.8 c 5.4 0.7 10.8 0.9 16.5 0.9 c 32.2 0 62 -11 85.4 -29.3 c -30.1 -0.6 -55.4 -20.6 -64.4 -47.8 c 4.2 0.9 8.6 1.2 13 1.2 c 6.3 0 12.5 -0.7 18.1 -2.3 c -31.3 -6.4 -55.2 -34.1 -55.2 -67.5 v -0.8 c 9.2 5 20.1 8.2 31.1 8.5 c -18.3 -12.2 -30.6 -33.3 -30.6 -57.1 c 0 -12.7 3.5 -24.4 9.4 -34.7 c 34 41.7 84.7 69 142 71.8 c -1.1 -5 -1.6 -10.2 -1.6 -15.7 c 0 -37.8 30.7 -68.7 68.8 -68.7 c 19.7 0 37.7 8.3 50.3 21.7 c 15.7 -3.1 30.4 -8.7 43.7 -16.6 c -5.1 16.1 -16 29.4 -30.3 37.9 c 13.9 -1.8 27.2 -5.4 39.7 -10.8 c -9.2 14.1 -20.7 26.2 -34.4 35.9 Z" /></symbol><symbol id="icon-twitter" viewBox="0 0 32 32"><path d="M 32 7.075 a 12.941 12.941 0 0 1 -3.769 1.031 a 6.601 6.601 0 0 0 2.887 -3.631 a 13.21 13.21 0 0 1 -4.169 1.594 A 6.565 6.565 0 0 0 22.155 4 a 6.563 6.563 0 0 0 -6.563 6.563 c 0 0.512 0.056 1.012 0.169 1.494 A 18.635 18.635 0 0 1 2.23 5.195 a 6.56 6.56 0 0 0 -0.887 3.3 a 6.557 6.557 0 0 0 2.919 5.463 a 6.565 6.565 0 0 1 -2.975 -0.819 v 0.081 a 6.565 6.565 0 0 0 5.269 6.437 a 6.574 6.574 0 0 1 -2.968 0.112 a 6.588 6.588 0 0 0 6.131 4.563 a 13.17 13.17 0 0 1 -9.725 2.719 a 18.568 18.568 0 0 0 10.069 2.95 c 12.075 0 18.681 -10.006 18.681 -18.681 c 0 -0.287 -0.006 -0.569 -0.019 -0.85 A 13.216 13.216 0 0 0 32 7.076 Z" /></symbol><symbol id="icon-user" viewBox="0 0 60 59.2"><path d="M 60 54.2 c 0 -10.5 -5.5 -20 -14.1 -25.4 c -3.7 4.7 -9.4 7.7 -15.9 7.7 c -6.4 0 -12.2 -3 -15.9 -7.7 C 5.5 34.2 0 43.7 0 54.2 c 0 2.8 2.2 5 5 5 h 50 c 2.8 0 5 -2.3 5 -5 Z" /><path d="M 13.8 16.2 c 0 9 7.3 16.2 16.2 16.2 s 16.2 -7.2 16.2 -16.2 S 39 0 30 0 S 13.8 7.3 13.8 16.2 Z" /></symbol><symbol id="icon-viadeo" viewBox="0 0 20 28"><path d="M 16.406 17.281 c 0 2.234 -0.781 4.203 -2.297 5.844 c -1.578 1.719 -3.578 2.516 -5.906 2.516 c -2.312 0 -4.328 -0.781 -5.906 -2.516 C 0.781 21.484 0 19.516 0 17.281 c 0 -4.641 3.5 -8.437 8.203 -8.437 c 0.969 0 1.937 0.156 2.844 0.484 a 5.76 5.76 0 0 0 -0.609 1.969 a 5.751 5.751 0 0 0 -2.234 -0.438 c -3.547 0 -6.156 3.031 -6.156 6.469 c 0 3.5 2.594 6.359 6.156 6.359 s 6.141 -2.859 6.141 -6.359 c 0 -0.891 -0.156 -1.766 -0.5 -2.594 a 5.89 5.89 0 0 0 1.922 -0.766 a 8.616 8.616 0 0 1 0.641 3.313 Z m -3.187 -2.953 c 0 3.938 -1.594 7.219 -4.969 9.344 l -0.219 0.016 c -0.328 0 -0.656 -0.031 -0.969 -0.078 c 4.516 -1.719 5.344 -8.578 5.344 -12.766 c 0 -0.531 0 -1.078 -0.047 -1.609 c 0.562 1.641 0.859 3.359 0.859 5.094 Z m -0.86 -5.125 v 0.031 c -0.812 -2.391 -1.937 -4.703 -3.219 -6.875 c 1.969 1.328 3.047 4.547 3.219 6.844 Z m 3.813 3.172 c -0.969 0 -1.828 -0.516 -2.5 -1.172 c 1.594 -0.875 3.609 -2.234 4.531 -3.859 c 0.109 -0.219 0.297 -0.625 0.328 -0.875 c -0.906 2.031 -3.219 3.625 -5.375 4.125 c -0.344 -0.531 -0.547 -1.125 -0.547 -1.766 c 0 -0.75 0.375 -1.75 0.938 -2.297 c 0.641 -0.609 1.594 -0.922 2.453 -1.156 c 1.25 -0.344 2.266 -1.313 2.812 -2.484 c 0.812 1.156 1.156 2.562 1.156 3.953 c 0 0.703 -0.109 1.984 -0.375 2.656 c -0.578 1.406 -1.75 2.875 -3.422 2.875 Z" /></symbol><symbol id="icon-youtube-color" viewBox="0 0 600 600"><path fill="#f44336" d="M 528.6 0 H 72.1 C 32.3 0 0.1 32.1 0.1 71.8 v 456.4 c 0 39.6 32.2 71.8 72 71.8 h 456.5 c 39.8 0 72 -32.1 72 -71.8 V 71.8 c 0 -39.7 -32.2 -71.8 -72 -71.8 Z" /><path fill="#fff" d="M 462.7 201.5 c -9.6 -17.1 -20.1 -20.3 -41.3 -21.5 c -21.3 -1.4 -74.7 -2 -121 -2 c -46.4 0 -99.8 0.6 -121.1 2 c -21.2 1.2 -31.7 4.3 -41.4 21.5 c -9.9 17.1 -15 46.6 -15 98.4 v 0.2 c 0 51.6 5.1 81.3 15 98.2 c 9.7 17.1 20.2 20.2 41.4 21.7 c 21.3 1.2 74.7 2 121.1 2 c 46.3 0 99.7 -0.7 121 -2 c 21.3 -1.4 31.7 -4.5 41.3 -21.7 c 10 -16.9 15.1 -46.6 15.1 -98.2 v -0.2 c 0 -51.8 -5 -81.3 -15.1 -98.4 Z M 256 366.6 V 233.5 L 366.9 300 L 256 366.6 Z" /></symbol><symbol id="icon-youtube" viewBox="0 0 32 32"><path d="M 31.681 9.6 s -0.313 -2.206 -1.275 -3.175 C 29.187 5.15 27.825 5.144 27.2 5.069 c -4.475 -0.325 -11.194 -0.325 -11.194 -0.325 h -0.012 s -6.719 0 -11.194 0.325 c -0.625 0.075 -1.987 0.081 -3.206 1.356 C 0.631 7.394 0.325 9.6 0.325 9.6 s -0.319 2.588 -0.319 5.181 v 2.425 c 0 2.587 0.319 5.181 0.319 5.181 s 0.313 2.206 1.269 3.175 c 1.219 1.275 2.819 1.231 3.531 1.369 c 2.563 0.244 10.881 0.319 10.881 0.319 s 6.725 -0.012 11.2 -0.331 c 0.625 -0.075 1.988 -0.081 3.206 -1.356 c 0.962 -0.969 1.275 -3.175 1.275 -3.175 s 0.319 -2.587 0.319 -5.181 v -2.425 c -0.006 -2.588 -0.325 -5.181 -0.325 -5.181 Z M 12.694 20.15 v -8.994 l 8.644 4.513 l -8.644 4.481 Z" /></symbol></svg>